<svg xmlns:xlink="http://www.w3.org/1999/xlink" width="24" xmlns="http://www.w3.org/2000/svg" height="24" id="screenshot-3412d080-4a2f-11ed-aa41-651f5bdb8091" viewBox="0 0 24 24" style="-webkit-print-color-adjust: exact;" fill="none" version="1.1"><g id="shape-3412d080-4a2f-11ed-aa41-651f5bdb8091" height="48" width="48" rx="0" ry="0" style="fill: rgb(0, 0, 0);"><g id="shape-34140900-4a2f-11ed-aa41-651f5bdb8091"><g id="fills-34140900-4a2f-11ed-aa41-651f5bdb8091"><path rx="0" ry="0" d="M9.425,14.575L9.425,9.45L14.55,9.45L14.55,14.575ZM10.925,13.075L13.05,13.075L13.05,10.95L10.925,10.95ZM9,21L9,19L6.5,19C6.1,19,5.75,18.85,5.45,18.55C5.15,18.25,5,17.9,5,17.5L5,15L3,15L3,13.5L5,13.5L5,10.4L3,10.4L3,8.9L5,8.9L5,6.4C5,6,5.15,5.65,5.45,5.35C5.75,5.05,6.1,4.9,6.5,4.9L9,4.9L9,3L10.5,3L10.5,4.9L13.6,4.9L13.6,3L15.1,3L15.1,4.9L17.6,4.9C18,4.9,18.35,5.05,18.65,5.35C18.95,5.65,19.1,6,19.1,6.4L19.1,8.9L21,8.9L21,10.4L19.1,10.4L19.1,13.5L21,13.5L21,15L19.1,15L19.1,17.5C19.1,17.9,18.95,18.25,18.65,18.55C18.35,18.85,18,19,17.6,19L15.1,19L15.1,21L13.6,21L13.6,19L10.5,19L10.5,21ZM17.6,17.5L17.6,6.4L6.5,6.4L6.5,17.5ZM12,12Z" style="fill: rgb(12, 231, 213); fill-opacity: 1;"/></g></g></g></svg>