<svg xmlns:xlink="http://www.w3.org/1999/xlink" width="24" xmlns="http://www.w3.org/2000/svg" height="24" id="screenshot-34189ce0-4a2f-11ed-aa41-651f5bdb8091" viewBox="0 0 24 24" style="-webkit-print-color-adjust: exact;" fill="none" version="1.1"><g id="shape-34189ce0-4a2f-11ed-aa41-651f5bdb8091" height="48" width="48" rx="0" ry="0" style="fill: rgb(0, 0, 0);"><g id="shape-34196030-4a2f-11ed-aa41-651f5bdb8091"><g id="fills-34196030-4a2f-11ed-aa41-651f5bdb8091"><path rx="0" ry="0" d="M4.473,19.527L5.554,19.527L16.432,8.648L15.352,7.568L4.473,18.446ZM19.551,7.592L16.408,4.449L17.439,3.417C17.718,3.139,18.061,3,18.471,3C18.88,3,19.224,3.139,19.502,3.417L20.583,4.498C20.861,4.776,21,5.12,21,5.529C21,5.939,20.861,6.282,20.583,6.561ZM18.52,8.623L6.143,21L3,21L3,17.857L15.377,5.48ZM15.892,8.108L15.352,7.568L16.432,8.648Z" style="fill: rgb(224, 224, 224); fill-opacity: 1;"/></g></g></g></svg>