<svg width="180" height="180" viewBox="0 0 180 180" fill="none" xmlns="http://www.w3.org/2000/svg">
<rect width="180" height="180" fill="#111111"/>
<path d="M76.0156 103.984V75.1562H104.844V103.984H76.0156ZM84.4531 95.5469H96.4063V83.5937H84.4531V95.5469ZM73.625 140.125V128.875H59.5625C57.3125 128.875 55.3437 128.031 53.6562 126.344C51.9687 124.656 51.125 122.688 51.125 120.438V106.375H39.875V97.9375H51.125V80.5H39.875V72.0625H51.125V58C51.125 55.75 51.9687 53.7812 53.6562 52.0937C55.3437 50.4062 57.3125 49.5625 59.5625 49.5625H73.625V38.875H82.0625V49.5625H99.5V38.875H107.938V49.5625H122C124.25 49.5625 126.219 50.4062 127.906 52.0937C129.594 53.7812 130.438 55.75 130.438 58V72.0625H141.125V80.5H130.438V97.9375H141.125V106.375H130.438V120.438C130.438 122.688 129.594 124.656 127.906 126.344C126.219 128.031 124.25 128.875 122 128.875H107.938V140.125H99.5V128.875H82.0625V140.125H73.625ZM122 120.438V58H59.5625V120.438H122Z" fill="#0CE7D5"/>
</svg>
